# xmcd CD database file generated by OrangeCD 6.3
#
# Track frame offsets:
#	150
#	10222
#	19796
#	32323
#	44017
#	58213
#	66085
#	75575
#	88660
#	97691
#	110000
#	121935
#	134115
#	147317
#	161724
#	173596
#	188123
#	200636
#	212961
#	227458
#	239491
#	253246
#	264910
#	278287
#	288995
#	303275
#	317457
#
# Disc length: 4388 seconds
#
# Revision: 1
# Processed by: cddbd v1.5.2PL0 Copyright (c) Steve Scherf et al.
# Submitted via: OrangeCD 6.3
#
DISCID=7911221b
DTITLE=Dolly Parton - In The Good Old Days (1969) - Jolene (1974)
DYEAR=1900
DGENRE=Country
TTITLE0=Don't Let It Trouble Your Mind
TTITLE1=He's a Go-Getter
TTITLE2=In The Good Old Days
TTITLE3=It's My Time
TTITLE4=Harper Valley PTA
TTITLE5=Little Bird
TTITLE6=Mine
TTITLE7=The Carroll County Incident
TTITLE8=Fresh Out Of Forgiveness
TTITLE9=Mama Say A Prayer
TTITLE10=Always The First Time
TTITLE11=Jolene
TTITLE12=I Will Always Love You
TTITLE13=Lonely Comin' Down
TTITLE14=It's My Time
TTITLE15=Harper Valley PTA
TTITLE16=Mama Say A Prayer
TTITLE17=D.I.V.O.R.C.E.
TTITLE18=We Used To
TTITLE19=Bobby's Arms
TTITLE20=The Seeker
TTITLE21=Hold Me
TTITLE22=Here You Come Again
TTITLE23=Lovin' You
TTITLE24=Sweet Music Man
TTITLE25=I Really Got The Feeling
TTITLE26=Baby I'm Burning
EXTD=
EXTT0=
EXTT1=
EXTT2=
EXTT3=
EXTT4=
EXTT5=
EXTT6=
EXTT7=
EXTT8=
EXTT9=
EXTT10=
EXTT11=
EXTT12=
EXTT13=
EXTT14=
EXTT15=
EXTT16=
EXTT17=
EXTT18=
EXTT19=
EXTT20=
EXTT21=
EXTT22=
EXTT23=
EXTT24=
EXTT25=
EXTT26=
PLAYORDER=
